<svg xmlns="http://www.w3.org/2000/svg" viewBox="0 0 64 64"><title>06-healthcare</title><g id="_06-healthcare" data-name="06-healthcare"><path d="M32,27A15,15,0,1,1,17,42,15,15,0,0,1,32,27ZM42,46V38H36V32H28v6H22v8h6v6h8V46Z" style="fill:#fcfcfc"/><path d="M47,5v8H43V6a1,1,0,0,0-1-1H22a1,1,0,0,0-1,1v7H17V5a4,4,0,0,1,4-4H43A4,4,0,0,1,47,5Z" style="fill:#fc4747"/><rect x="7" y="10" width="6" height="3" style="fill:#fc4747"/><rect x="51" y="10" width="6" height="3" style="fill:#fc4747"/><path d="M43,6v7H21V6a1,1,0,0,1,1-1H42A1,1,0,0,1,43,6Z" style="fill:#fcfcfc"/><path d="M57,13a6,6,0,0,1,6,6v2H1V19a6,6,0,0,1,6-6H57Z" style="fill:#f0f0f0"/><path d="M63,21V57a6,6,0,0,1-6,6H7a6,6,0,0,1-6-6V21ZM47,42A15,15,0,1,0,32,57,15,15,0,0,0,47,42Z" style="fill:#fc4747"/><path d="M57,13H7a6,6,0,0,0-6,6v2H4V19a3,3,0,0,1,3-3H57a3,3,0,0,1,3,3v2h3V19A6,6,0,0,0,57,13Z" style="fill:#cfcfcf"/><path d="M60,57a3,3,0,0,1-3,3H7a3,3,0,0,1-3-3V21H1V57a6,6,0,0,0,6,6H57a6,6,0,0,0,6-6V21H60Z" style="fill:#ca2a28"/><polygon points="42 38 42 46 36 46 36 52 28 52 28 46 22 46 22 38 28 38 28 32 36 32 36 38 42 38" style="fill:#fc4747"/><path d="M45,10V5a2,2,0,0,0-2-2H21a2,2,0,0,0-2,2v5a1,1,0,0,1-1,1H17v2h4V6a1,1,0,0,1,1-1H42a1,1,0,0,1,1,1v7h4V11H46A1,1,0,0,1,45,10Z" style="fill:#ca2a28"/><rect x="60" y="35" width="3" height="18" rx="1.5" ry="1.5" style="fill:#dc2e2b"/><rect x="60" y="28" width="3" height="5" rx="1.5" ry="1.5" style="fill:#dc2e2b"/><rect x="1" y="35" width="3" height="18" rx="1.5" ry="1.5" style="fill:#dc2e2b"/><rect x="1" y="28" width="3" height="5" rx="1.5" ry="1.5" style="fill:#dc2e2b"/><rect x="26.5" y="50.5" width="3" height="22" rx="1.5" ry="1.5" transform="translate(89.5 33.5) rotate(90)" style="fill:#ae2a25"/><rect x="42" y="59" width="3" height="5" rx="1.5" ry="1.5" transform="translate(105 18) rotate(90)" style="fill:#ae2a25"/><rect x="37.5" y="6.5" width="3" height="22" rx="1.5" ry="1.5" transform="translate(56.5 -21.5) rotate(90)" style="fill:#fcfcfc"/><rect x="53" y="15" width="3" height="5" rx="1.5" ry="1.5" transform="translate(72 -37) rotate(90)" style="fill:#fcfcfc"/><ellipse cx="54.684" cy="25.695" rx="1.642" ry="2.286" transform="translate(-2.145 46.213) rotate(-45.02)" style="fill:#f6fafd"/><ellipse cx="48.682" cy="27.708" rx="0.825" ry="1.148" transform="translate(-5.329 42.557) rotate(-45.02)" style="fill:#f6fafd"/><ellipse cx="45.427" cy="25.208" rx="0.413" ry="0.574" transform="translate(-4.515 39.523) rotate(-45.02)" style="fill:#f6fafd"/><path d="M64,52V19a7.006,7.006,0,0,0-6-6.92V10a1,1,0,0,0-1-1H51a1,1,0,0,0-1,1v2H48V5a5.006,5.006,0,0,0-5-5H21a5.006,5.006,0,0,0-5,5v7H14V10a1,1,0,0,0-1-1H7a1,1,0,0,0-1,1v2.08A7.006,7.006,0,0,0,0,19V57a7.008,7.008,0,0,0,7,7H57a7.008,7.008,0,0,0,7-7V54H62v3a5.006,5.006,0,0,1-5,5H7a5.006,5.006,0,0,1-5-5V22H6V20H2V19a5.006,5.006,0,0,1,5-5H57a5.006,5.006,0,0,1,5,5v1H12v2H62V52ZM18,5a3,3,0,0,1,3-3H43a3,3,0,0,1,3,3v7H44V10H42v2H22V6H42V8h2V6a2,2,0,0,0-2-2H22a2,2,0,0,0-2,2v6H18ZM8,12V11h4v1Zm44,0V11h4v1Z"/><path d="M16,42A16,16,0,1,0,32,26,16.019,16.019,0,0,0,16,42Zm30,0A14,14,0,1,1,32,28,14.015,14.015,0,0,1,46,42Z"/><rect x="8" y="20" width="2" height="2"/><path d="M27,32v5H22a1,1,0,0,0-1,1v8a1,1,0,0,0,1,1h5v5a1,1,0,0,0,1,1h8a1,1,0,0,0,1-1V47h5a1,1,0,0,0,1-1V38a1,1,0,0,0-1-1H37V32a1,1,0,0,0-1-1H28A1,1,0,0,0,27,32Zm2,6V33h6v5a1,1,0,0,0,1,1h5v6H36a1,1,0,0,0-1,1v5H29V46a1,1,0,0,0-1-1H23V39h5A1,1,0,0,0,29,38Z"/></g></svg>